<?xml version="1.0" encoding="UTF-8"?>
<svg width="82" height="72" version="1.1" viewBox="0 0 82 72" xmlns="http://www.w3.org/2000/svg" xmlns:cc="http://creativecommons.org/ns#" xmlns:dc="http://purl.org/dc/elements/1.1/" xmlns:osb="http://www.openswatchbook.org/uri/2009/osb" xmlns:rdf="http://www.w3.org/1999/02/22-rdf-syntax-ns#" xmlns:xlink="http://www.w3.org/1999/xlink">
 <defs>
  <linearGradient id="linearGradient3395" x1="76.088" x2="146.13" y1="134.31" y2="132.47" gradientTransform="translate(-56.988 -98.01)" gradientUnits="userSpaceOnUse" spreadMethod="repeat">
   <stop stop-color="#fc0" offset="0"/>
   <stop stop-color="#fc0" stop-opacity="0" offset="1"/>
  </linearGradient>
 </defs>
 <metadata>
  <rdf:RDF>
   <cc:Work rdf:about="">
    <dc:format>image/svg+xml</dc:format>
    <dc:type rdf:resource="http://purl.org/dc/dcmitype/StillImage"/>
    <dc:title/>
   </cc:Work>
  </rdf:RDF>
 </metadata>
 <path d="m19.118 10.581s40.838 0.92813 45.478 52.161" fill="none" stroke="url(#linearGradient3395)" stroke-width="3.7042" style="mix-blend-mode:normal"/>
 <rect x="6.4026" y="1.3889" width="70.365" height="69.147" fill="none" stroke="#0055d4" stroke-width="2.6233"/>
 <g transform="matrix(.52901 0 0 .52901 -70.952 -112.83)">
  <g>
   <path d="m206.06 224.49c-6.1926-3.3586-13.269-4.2442-20.141-5.2175-2.6874-0.0823-6.0781-0.88022-8.7523-0.10779-2.1989 0.63515-6.9438 5.1955-6.9993 5.2645-0.49243 0.61158-0.0577 1.5693-0.0866 2.354 0.80855 5.1382 3.0295 9.8844 4.4247 14.866 0.21292 0.76015 0.3758 1.5334 0.5637 2.3001-4e-3 0.66873 0.15084 1.3573-0.0109 2.0062-0.33125 1.3294-1.5209 2.541-2.5728 3.2967-0.79732 0.57282-1.5903 1.2698-2.5509 1.4722-0.46374 0.0977 0.58435-0.74629 0.87652-1.1194-1.3871 0.43337-2.7743 0.86674-4.1614 1.3001-3.231 0.90455-6.5052 1.6359-9.78 2.359l-4.2479 3.2329c3.3191-0.7662 6.6373-1.5385 9.9276-2.4228 6.3972-1.9136 4.2641-1.026 12.333-5.2603 2.1329-1.1194 4.4991-2.7297 4.9717-5.3109 0.12641-0.69045-0.0488-1.403-0.0732-2.1045-0.71901-2.7068-1.5759-5.3544-2.4776-8.0066-0.72397-2.1294-1.4171-3.8426-1.9219-6.0423-0.22468-0.97895-0.33464-1.9807-0.50196-2.9711 0.39849-4.046 0.80777-1.3646-3.5177-1.0029-0.59861 0.05 0.94625-0.77464 1.5087-0.98555 2.5125-0.94217 6.2544-0.16933 8.8176-0.13066 6.7552 0.90489 13.742 1.7782 19.764 5.207l4.608-2.9761z"/>
   <path d="m198.1 231.9c-1.6138 0.0467-3.2297-0.0137-4.8434 0.0222-1.1466 0.0255-1.8027 0.0153-2.8814 0.3659-0.35792 0.11633-0.6852 0.31155-1.0278 0.46733-1.745 1.2529-3.7161 2.2396-5.2351 3.7588-0.35732 0.35735-0.14494 1.0215-0.0387 1.5156 0.35797 1.6651 1.408 3.0946 2.371 4.436 0.93157 1.2975 2.5254 3.2164 3.5489 4.4718 0.84122 1.072 2.8388 3.3058 2.5097 4.9104-0.0833 0.40612-1.0814 1.2008-0.70661 1.0235 7.0619-3.3406-0.59418-1.2584-1.116-1.1534-4.2731 0.62793-8.5867 0.72761-12.895 0.79925l-4.2183 3.0766c4.3169-0.0868 8.6363-0.20331 12.929-0.72158 5.1346-0.78921 4.6125-0.28112 10.271-4.2376 0.39438-0.27577 0.49985-0.86095 0.53509-1.3409 0.13303-1.8119-1.729-3.8422-2.74-5.0948-1.6486-1.9899-3.8154-4.3926-4.9712-6.6982-0.30064-0.59973-0.54928-1.2419-0.64755-1.9056-0.0633-0.42753 0.60244-1.3493 0.17509-1.2847-1.4656 0.22148-2.6903 1.2454-4.0354 1.8681 0.32285-0.19099 0.62439-0.42373 0.96853-0.57296 2.2025-0.95503 5.2388-0.34108 7.6076-0.47881l4.4414-3.2268z"/>
   <path d="m210.08 223.3c-2.2738 10.168-4.3153 20.387-6.48 30.579-1.1695 5.1933-0.64847 2.847-1.5705 7.0373l4.7881-2.3215c0.74152-4.112 0.30541-1.8024 1.3409-6.9228 2.0617-10.302 4.1329-20.614 6.8658-30.763l-4.9442 2.3913z"/>
   <path d="m217.29 238.62c-2.7469 1.7419-5.5234 3.4345-8.2336 5.2344-1.0096 0.78584-2.0721 1.5053-3.0636 2.3148-0.23615 0.1928-0.49607 0.36519-0.68962 0.60073-0.41636 0.50671-0.42951 0.84798-0.5725 1.4489 0.0574 0.27278 0.0722 0.55816 0.17224 0.81834 0.52318 1.3605 2.0262 2.4268 3.1778 3.2187 1.0631 0.67473 2.0192 1.4492 2.7787 2.455 0.95899 1.4863 2.2089 2.7194 3.5528 3.8549 1.0859 0.74324 0.54386 0.41115 1.6196 1.0067l4.5941-3.0085c-1.0466-0.5239-0.51989-0.22784-1.5743-0.8988-1.3237-1.0918-2.5217-2.3125-3.4454-3.7678-0.78111-1.0709-1.7732-1.9015-2.9-2.5995-0.92639-0.61302-2.5751-1.7357-2.9389-2.8384-0.0623-0.18882-0.0376-0.39589-0.0564-0.59383 0.0761-0.19294 0.12311-0.40004 0.22824-0.57881 0.30919-0.52575 0.65861-0.76644 1.1351-1.1463 0.98838-0.78793 2.0184-1.5234 3.042-2.2641 2.7317-1.8036 5.5211-3.5145 8.3049-5.236l-5.1311 1.9796z"/>
   <path d="m253.04 229.1c-2.4784-0.60652-4.9557-1.3758-7.5182-1.5362-0.55516-0.0348-1.1124-0.016-1.6686-0.0239-3.1994-0.0448-5.9417 0.73376-8.793 2.106-4.3632 2.369-7.2418 3.6611-9.7741 7.649-1.2819 2.0324-1.7648 4.439-2.5371 6.6901-0.69169 1.8526-0.82474 3.7979-0.90498 5.7526-0.0289 1.1685-0.0467 2.3373-0.0556 3.5061-5e-3 0.65356-0.0361 1.5875 0.0994 2.2236 0.0956 0.44873 0.28382 0.87257 0.42572 1.3089 0.88855 2.2238 2.204 4.1985 3.7931 5.9742 1.5569 1.7978 3.5764 2.9276 5.7976 3.6854 1.6253 0.47543 3.3109 0.59947 4.9938 0.649 1.4871 0.0119 2.9743-7e-3 4.4614-0.0122 2.8982 0.0811 5.7163-1.5948 7.5887-3.774 0.79516-0.99415 1.368-2.0966 1.8352-3.2746 0.40793-1.405 1.1736-2.6551 1.7219-4.0022 0.4172-1.2304 0.49503-2.5388 0.54728-3.8271 0.0825-1.2658-0.33626-2.4816-0.85834-3.6154-0.94838-1.2444-2.4287-1.5903-3.9132-1.6695-1.6292-0.0269-3.2422 0.22804-4.8608 0.37232-0.30884 0.0222-0.61833 0.0366-0.92651 0.0666-0.25514 0.0248-2.2426 0.22676-2.4445 0.38448-4.4125 3.4462-5.6353 2.8453-3.5222 3.6087 0.0116 5e-3 0.41177 0.15175 0.42091 0.25579 4e-3 0.0451-0.0906-3e-3 -0.13569-7e-3 -0.0999-9e-3 -0.38344 0.0236-0.29909-0.0306 3.5494-2.2775 6.0805-3.2945 4.0307-2.4533l-4.3534 3.4127c1.3394-0.47587 7.6436-2.6251 4.8998-4.2942-2.3093-0.53913-0.49987-0.22478-5.4175 2.8705-0.15819 0.0996 0.35043-0.13284 0.53198-0.17731 0.91485-0.2241 1.864-0.33508 2.8032-0.37329 1.6047-0.13186 3.1987-0.37172 4.8094-0.4097 1.2908-7e-3 2.6719 0.12082 3.5789 1.1548 0.49114 1.0663 0.82448 2.2004 0.72973 3.3865-0.0601 1.2362-0.15664 2.4896-0.62618 3.6492-0.57656 1.3318-1.2743 2.6112-1.7157 4.0001-0.4955 1.1242-1.0966 2.194-1.9406 3.0987-1.3593 1.2611-4.3452 2.7173 3.7176-1.9314 0.14968-0.0863-0.30911 0.15805-0.4739 0.20996-0.54333 0.17118-0.6932 0.12533-1.2725 0.12754-1.4843 0.0134-2.9687 0.0269-4.4531 0.0239-1.6551-0.0163-3.3163-0.0896-4.9293-0.49788-2.211-0.67243-4.1021-1.6752-5.6446-3.4428-1.5508-1.7016-2.8398-3.6078-3.6933-5.7586-0.11865-0.40235-0.28044-0.79442-0.35597-1.207-0.0974-0.53182-0.0745-1.6326-0.0726-2.1853 4e-3 -1.1621 0.0129-2.3244 0.0637-3.4856 0.10615-1.9132 0.30123-3.8092 0.97552-5.6205 0.72309-2.2353 1.2526-4.5909 2.5974-6.5576 0.63058-0.90209 1.2957-1.7564 2.0948-2.5201 1.3437-1.2841 5.4713-3.731-1.5852 0.4653 2.7738-1.4491 5.4869-2.3202 8.6542-2.3189 0.54391-6e-3 1.0882-0.0404 1.6317-0.018 2.5297 0.10449 4.9895 0.84589 7.4188 1.4897l4.5234-3.0979z"/>
  </g>
  <circle cx="265.07" cy="257.28" r=".049064" stroke="#000" stroke-width=".26458"/>
  <path d="m148.84 258.15c2.5612-0.021 5.1226-0.0161 7.6838-0.018 2.4893-5.3e-4 4.9786 5e-3 7.468 9e-3 1.796 4e-3 3.592 5e-3 5.3879 6e-3 2.4703 3e-3 4.9406-0.019 7.4109-0.0261 3.3552-5e-3 6.7059-0.0859 10.048 0.2387 2.7076 0.33419 5.4134 0.67669 8.1244 0.98193 2.6663 0.2597 5.3181 0.56694 7.9607 1.0067 2.4592 0.45386 4.8795 1.0663 7.2651 1.8095 3.3698 1.0538 6.7749 1.9772 10.214 2.7745 3.583 0.77459 7.2178 1.2768 10.844 1.8034 4.4428 0.51959 8.8285 1.4129 13.229 2.1998 2.8514 0.53864 5.7316 0.88447 8.628 1.0392 1.4727 0.0329 3.0203 0.21302 4.4447-0.28001 0.40191-0.13909 0.78208-0.33446 1.1731-0.50168 0.45312-0.24151 0.9137-0.4695 1.3594-0.7245 1.9989-1.1438 4.0105-2.2674 5.9737-3.4715 0.6055-0.37137 2.1972-1.7015 2.7535-2.1468 1.6871-1.3319 0.86138-0.6742 2.4777-1.9725 1.6976-1.5139 3.485-2.9368 4.9668-4.6714 0.1052-0.18192 0.26223-0.34251 0.3156-0.54577 0.43143-1.6434-1.4352-2.7252-2.566-3.4208-2.0218-1.0968-3.942-1.4275-6.2014-1.6233-2.1638-0.0993-4.3404-0.25861-6.5045-0.10381-2.6108 0.41726-4.307 1.8746-6.7158 3.4923-0.37592 0.25246-0.76844 1.628-0.89622 2.0531-0.23107 1.3468-0.49632 2.7492-0.26603 4.1099 0.0615 0.20324 0.0818 0.42389 0.18451 0.60971 1.1434 2.0676 4.9455 2.9333 6.9983 3.5872 2.3109 0.73371 4.6596 1.3206 7.0346 1.8005l4.4588-3.1119c-2.382-0.43476-4.7394-0.98112-7.0508-1.7105-0.80595-0.25968-3.0318-0.95538-3.8782-1.3057-0.9175-0.3797-2.2139-0.94108-2.7202-1.8997-0.0878-0.16615-0.0974-0.36295-0.14615-0.54443-0.14468-1.2919 0.062-2.6174 0.3682-3.8727 0.18917-0.49867 0.27339-0.8179 0.58591-1.2577 0.12965-0.18246 0.64793-0.59946 0.44676-0.50132-1.4447 0.70479-2.8148 1.5532-4.2164 2.3403-0.20419 0.11469 0.40438-0.2416 0.62407-0.3227 0.25152-0.0928 0.5201-0.13044 0.78015-0.19566 2.1413-0.27823 4.3226-0.0379 6.4736 4e-3 2.1004 0.15831 4.1458 0.44354 6.0441 1.429 1.2068 0.69271 3.0286 1.5846 1.7776 3.1274-1.5114 1.6604-3.2423 3.0947-4.9397 4.5587-1.2642 1.0148-2.5139 2.0631-3.8137 3.0319-1.8232 1.3588-3.3904 2.1572 1.8818-0.87487 0.43639-0.25099-0.87871 0.49149-1.3181 0.73723-0.79109 0.39701-1.1458 0.64114-1.9728 0.84148-1.1348 0.27491-2.324 0.14259-3.4754 0.14116-2.9072-0.11599-5.8024-0.41137-8.668-0.9262-4.4114-0.76065-8.7932-1.7147-13.247-2.2068-3.6052-0.52223-7.2013-1.1017-10.776-1.7983-3.4256-0.76115-6.8174-1.6623-10.15-2.7668-0.75418-0.23457-1.4957-0.51115-2.2576-0.71927-1.6659-0.45506-3.3822-0.75345-5.0637-1.1422-2.6515-0.44129-5.3016-0.81008-7.9828-1.0241-2.7132-0.32338-5.4261-0.64543-8.1382-0.97939-1.156-0.13022-1.9418-0.24324-3.0983-0.28007-2.3306-0.0742-4.6681 0.0774-6.9992 7e-3 -2.4464-7e-3 -4.8927-0.0291-7.3391-0.0261-1.8016 2e-3 -3.6032 2e-3 -5.4048 6e-3 -2.4974 4e-3 -4.9948 9e-3 -7.4922 9e-3 -2.5448-2e-3 -5.0896 3e-3 -7.6343-0.018l-4.4541 3.2361z"/>
 </g>
 <g transform="matrix(1.6901 0 0 1.6901 -109.82 -205.15)">
  <path d="m82.648 139.92a6.0733 6.0733 0 0 0-6.0423 6.0732 6.0733 6.0733 0 0 0 1.9738 4.4806l-2.0347 3.843h12.494l-2.1097-3.985a6.0733 6.0733 0 0 0 1.8238-4.3386 6.0733 6.0733 0 0 0-0.26376-1.77h2.6012v-4.2945h-8.0873a6.0733 6.0733 0 0 0-0.32334-9e-3 6.0733 6.0733 0 0 0-0.03124 0z" fill="#acf" stroke-width=".16489"/>
  <path d="m84.722 141.18a5.932 5.932 0 0 0-5.9017 5.9319 5.932 5.932 0 0 0 1.9279 4.3764l-1.9874 3.7536h12.203l-2.0607-3.8923a5.932 5.932 0 0 0 1.7813-4.2377 5.932 5.932 0 0 0-0.25762-1.7288h2.5407v-4.1946h-7.8991a5.932 5.932 0 0 0-0.31581-8e-3 5.932 5.932 0 0 0-0.03052 0z" fill="#3771c8" stroke-width=".16105"/>
 </g>
 <path d="m13.326 63.343v-9.7579m-1.3454 8.6586h9.7579" stroke="#fc0" stroke-miterlimit="4.1" stroke-width="2.6458" style="paint-order:markers fill stroke"/>
</svg>
