<?xml version="1.0" encoding="UTF-8"?>
<svg width="82" height="72" version="1.1" viewBox="0 0 82 72" xmlns="http://www.w3.org/2000/svg" xmlns:cc="http://creativecommons.org/ns#" xmlns:dc="http://purl.org/dc/elements/1.1/" xmlns:osb="http://www.openswatchbook.org/uri/2009/osb" xmlns:rdf="http://www.w3.org/1999/02/22-rdf-syntax-ns#">
 <defs>
  <linearGradient id="linearGradient3395" x1="76.088" x2="146.13" y1="134.31" y2="132.47" gradientTransform="translate(-54.952 -99.283)" gradientUnits="userSpaceOnUse" osb:paint="gradient" spreadMethod="repeat">
   <stop stop-color="#fc0" offset="0"/>
   <stop stop-color="#fc0" stop-opacity="0" offset="1"/>
  </linearGradient>
 </defs>
 <metadata>
  <rdf:RDF>
   <cc:Work rdf:about="">
    <dc:format>image/svg+xml</dc:format>
    <dc:type rdf:resource="http://purl.org/dc/dcmitype/StillImage"/>
    <dc:title/>
   </cc:Work>
  </rdf:RDF>
 </metadata>
 <rect x="6.3758" y="2.8444" width="70.419" height="65.936" fill="none" opacity=".998" stroke="#2a7fff" stroke-width="5"/>
 <path d="m21.154 9.3082s40.838 0.92813 45.478 52.161" fill="none" stroke="url(#linearGradient3395)" stroke-width="6.7276" style="mix-blend-mode:normal"/>
 <g transform="matrix(1.6901 0 0 1.6901 -109.82 -205.15)">
  <path d="m82.648 139.92a6.0733 6.0733 0 0 0-6.0423 6.0732 6.0733 6.0733 0 0 0 1.9738 4.4806l-2.0347 3.843h12.494l-2.1097-3.985a6.0733 6.0733 0 0 0 1.8238-4.3386 6.0733 6.0733 0 0 0-0.26376-1.77h2.6012v-4.2945h-8.0873a6.0733 6.0733 0 0 0-0.32334-9e-3 6.0733 6.0733 0 0 0-0.03124 0z" fill="#acf" stroke-width=".16489"/>
  <path d="m84.722 141.18a5.932 5.932 0 0 0-5.9017 5.9319 5.932 5.932 0 0 0 1.9279 4.3764l-1.9874 3.7536h12.203l-2.0607-3.8923a5.932 5.932 0 0 0 1.7813-4.2377 5.932 5.932 0 0 0-0.25762-1.7288h2.5407v-4.1946h-7.8991a5.932 5.932 0 0 0-0.31581-8e-3 5.932 5.932 0 0 0-0.03052 0z" fill="#3771c8" stroke-width=".16105"/>
 </g>
 <path d="m13.326 63.343v-9.7579m-1.3454 8.6586h9.7579" stroke="#f60" stroke-miterlimit="4.1" stroke-width="2.6458" style="paint-order:markers fill stroke"/>
</svg>
